<?xml version="1.0" encoding="UTF-8" standalone="no"?>
<!DOCTYPE svg PUBLIC "-//W3C//DTD SVG 1.1//EN" "http://www.w3.org/Graphics/SVG/1.1/DTD/svg11.dtd">
<svg version="1.1" xmlns="http://www.w3.org/2000/svg" xmlns:xlink="http://www.w3.org/1999/xlink" preserveAspectRatio="xMidYMid meet" viewBox="3.0540000000000003 3.375 169.908 179.75" width="165.91" height="175.75"><defs><path d="M86.83 180.13L156.9 141.29L169.96 32.96L86.74 4.38L4.05 33.48L17.12 141.81L86.83 180.13Z" id="bfclaeH3A"></path><path d="M149.54 136.11L161.71 39.22L86.55 13.59L86.55 170.97L149.54 136.11Z" id="a1jd5w9pd"></path><path d="M86.55 13.59L13.33 39.68L24.53 136.57L86.55 170.97L86.55 13.59Z" id="a2a75bXFV"></path><path d="M86.55 107.05L64.74 107.05L54.49 132.69L35.43 133.04L86.55 19.3L107.24 97.37L86.55 107.05ZM86.55 91.87L105.24 92.5L86.69 55.77L71.47 91.87L86.55 91.87Z" id="aq6VCTUZm"></path><path d="M86.59 91.9L86.55 107.02L110.56 107.05L121.79 133.04L140.03 133.38L86.55 19.3L86.69 55.77L103.95 91.9L86.59 91.9Z" id="clEdPppvo"></path></defs><g><g><use xlink:href="#bfclaeH3A" opacity="1" fill="#b3b3b3" fill-opacity="1"></use><g><use xlink:href="#bfclaeH3A" opacity="1" fill-opacity="0" stroke="#000000" stroke-width="1" stroke-opacity="0"></use></g></g><g><use xlink:href="#a1jd5w9pd" opacity="1" fill="#a6120d" fill-opacity="1"></use><g><use xlink:href="#a1jd5w9pd" opacity="1" fill-opacity="0" stroke="#000000" stroke-width="1" stroke-opacity="0"></use></g></g><g><use xlink:href="#a2a75bXFV" opacity="1" fill="#dd1b16" fill-opacity="1"></use><g><use xlink:href="#a2a75bXFV" opacity="1" fill-opacity="0" stroke="#000000" stroke-width="1" stroke-opacity="0"></use></g></g><g><use xlink:href="#aq6VCTUZm" opacity="1" fill="#f2f2f2" fill-opacity="1"></use><g><use xlink:href="#aq6VCTUZm" opacity="1" fill-opacity="0" stroke="#000000" stroke-width="1" stroke-opacity="0"></use></g></g><g><use xlink:href="#clEdPppvo" opacity="1" fill="#b3b3b3" fill-opacity="1"></use><g><use xlink:href="#clEdPppvo" opacity="1" fill-opacity="0" stroke="#000000" stroke-width="1" stroke-opacity="0"></use></g></g></g></svg>