<?xml version="1.0" standalone="no"?>
<!DOCTYPE svg PUBLIC "-//W3C//DTD SVG 20010904//EN"
 "http://www.w3.org/TR/2001/REC-SVG-20010904/DTD/svg10.dtd">
<svg version="1.0" xmlns="http://www.w3.org/2000/svg"
 width="1898.000000pt" height="1898.000000pt" viewBox="0 0 1898.000000 1898.000000"
 preserveAspectRatio="xMidYMid meet">
<metadata>
Created by potrace 1.14, written by Peter Selinger 2001-2017
</metadata>
<g transform="translate(0.000000,1898.000000) scale(0.100000,-0.100000)"
fill="#000000" stroke="none">
<path d="M10740 16094 c-77 -21 -172 -67 -245 -119 -131 -93 -276 -281 -353
-458 -62 -140 -483 -1460 -489 -1532 -7 -77 10 -138 50 -180 28 -30 149 -78
1095 -434 663 -250 1076 -401 1098 -401 19 0 47 6 62 14 35 18 85 72 105 112
20 39 440 1349 466 1453 34 133 44 235 38 390 -9 257 -80 450 -217 590 -72 73
-129 102 -400 204 -124 47 -381 144 -572 216 -192 72 -374 138 -405 146 -71
19 -161 18 -233 -1z"/>
<path d="M9472 13129 c-47 -10 -100 -56 -132 -114 -15 -28 -575 -1759 -1255
-3883 l-1226 -3832 191 -1063 c105 -584 197 -1088 205 -1119 50 -198 192 -296
352 -242 26 9 63 27 82 40 20 13 386 349 814 746 718 667 779 726 791 768 8
25 562 1755 1232 3845 1134 3541 1217 3805 1218 3870 0 73 -21 131 -60 167
-11 9 -377 151 -814 316 -437 165 -905 342 -1040 393 -299 112 -316 118 -358
108z"/>
<path d="M4651 12909 c-24 -4 -63 -18 -86 -29 -50 -24 -4272 -3591 -4316
-3646 -33 -41 -59 -119 -59 -174 0 -74 28 -137 88 -200 43 -44 3960 -3366
4214 -3573 124 -102 314 -112 439 -24 26 17 340 315 698 660 694 669 695 671
708 777 7 61 -11 137 -47 193 -21 34 -310 269 -1266 1028 -682 541 -1283 1018
-1337 1061 l-97 77 217 173 c379 301 1650 1311 2042 1621 207 164 388 310 402
323 15 14 40 49 55 77 25 45 29 62 29 132 -1 63 -5 90 -24 128 -19 38 -164
183 -693 693 -465 448 -683 651 -716 668 -82 41 -163 53 -251 35z"/>
<path d="M14160 12906 c-78 -21 -112 -43 -270 -173 -222 -181 -346 -292 -502
-450 -275 -277 -409 -471 -490 -706 -30 -85 -32 -103 -33 -222 0 -109 4 -142
23 -205 58 -184 166 -333 392 -542 183 -170 408 -337 985 -733 143 -98 343
-237 445 -308 264 -186 687 -505 678 -511 -2 -2 -603 -479 -1337 -1061 -1400
-1112 -1375 -1090 -1402 -1190 -15 -55 -5 -145 21 -200 17 -35 174 -193 673
-673 358 -345 669 -641 692 -659 109 -86 282 -94 408 -20 62 37 4246 3580
4285 3629 94 119 76 284 -45 399 -26 25 -340 293 -698 596 -593 500 -1191
1007 -2780 2353 -760 644 -740 627 -777 646 -81 42 -184 54 -268 30z"/>
</g>
</svg>
